<?xml version="1.0" standalone="no"?>
<!DOCTYPE svg PUBLIC "-//W3C//DTD SVG 20010904//EN"
 "http://www.w3.org/TR/2001/REC-SVG-20010904/DTD/svg10.dtd">
<svg version="1.0" xmlns="http://www.w3.org/2000/svg"
 width="1500.000000pt" height="1500.000000pt" viewBox="0 0 1500.000000 1500.000000"
 preserveAspectRatio="xMidYMid meet">
<metadata>
Created by potrace 1.14, written by Peter Selinger 2001-2017
</metadata>
<g transform="translate(0.000000,1500.000000) scale(0.100000,-0.100000)"
fill="#000000" stroke="none">
<path d="M6485 12130 c-2 -3 -40 -5 -84 -5 -45 0 -81 -2 -81 -5 0 -3 -24 -5
-53 -6 -28 0 -77 -3 -107 -7 -30 -4 -69 -9 -87 -11 -71 -8 -132 -77 -129 -142
4 -66 81 -121 153 -110 15 2 55 7 88 10 33 4 81 9 106 12 25 3 104 7 175 8
168 5 198 11 229 48 33 39 40 72 26 119 -11 35 -55 82 -82 85 -5 1 -10 2 -11
3 -7 5 -140 5 -143 1z"/>
<path d="M7354 12090 c-19 -8 -73 -63 -75 -78 0 -4 -2 -18 -4 -32 -4 -27 12
-78 30 -96 21 -21 71 -42 115 -49 25 -3 56 -8 70 -10 14 -2 45 -7 70 -11 25
-3 54 -7 65 -9 11 -2 40 -6 65 -10 25 -3 52 -8 60 -11 8 -3 33 -8 55 -11 22
-3 49 -9 61 -13 35 -14 119 -4 147 16 66 48 66 150 1 202 -19 15 -37 27 -41
26 -5 0 -24 3 -43 8 -19 5 -48 11 -65 13 -16 3 -40 7 -52 10 -43 9 -58 12
-128 24 -38 7 -83 14 -100 17 -16 3 -55 7 -85 10 -30 3 -71 6 -90 8 -19 2 -44
0 -56 -4z"/>
<path d="M5198 11915 c-21 -8 -38 -11 -38 -8 0 3 -7 0 -15 -7 -8 -7 -15 -9
-15 -5 0 4 -7 2 -15 -5 -8 -7 -15 -10 -15 -7 0 5 -121 -36 -180 -60 -8 -3 -22
-7 -30 -9 -34 -8 -191 -74 -203 -86 -35 -35 -46 -64 -43 -117 3 -42 9 -59 26
-73 48 -39 77 -36 215 16 39 15 80 29 91 32 12 2 38 11 58 19 20 8 36 13 36
10 0 -3 10 0 22 6 19 10 79 29 138 44 54 13 118 40 133 57 10 10 23 33 28 51
32 112 -71 187 -193 142z"/>
<path d="M8654 11751 c-44 -27 -64 -59 -64 -102 0 -55 28 -95 85 -123 49 -24
134 -60 145 -62 5 -1 53 -19 80 -31 63 -28 156 9 168 66 7 37 1 95 -14 120
-12 21 -77 61 -124 76 -26 9 -76 29 -132 54 -59 26 -104 27 -144 2z"/>
<path d="M10678 11715 c-2 -1 -46 -5 -98 -9 -94 -6 -153 -12 -157 -16 -2 -1
-7 -4 -13 -5 -5 -1 -13 -4 -17 -5 -5 -1 -11 -2 -15 -1 -16 2 -157 -49 -228
-82 -96 -46 -148 -76 -180 -104 -14 -13 -29 -23 -33 -23 -24 0 -187 -166 -256
-260 -83 -112 -184 -325 -197 -415 -2 -11 -9 -49 -17 -85 -8 -36 -12 -68 -8
-72 3 -4 17 -9 31 -12 34 -7 160 -43 191 -54 23 -9 25 -8 24 17 -1 14 1 30 4
36 3 5 6 21 7 35 3 35 21 103 45 170 25 68 100 210 111 210 4 0 8 4 8 10 0 27
156 183 239 239 64 44 203 112 256 126 17 5 35 10 40 11 65 20 179 32 286 29
70 -1 131 -5 136 -8 5 -3 20 -8 34 -11 73 -16 115 -28 126 -38 7 -6 13 -7 13
-3 0 4 6 3 13 -3 6 -6 15 -11 20 -11 16 -2 115 -56 172 -94 56 -39 215 -188
215 -202 0 -4 13 -24 29 -44 33 -41 101 -171 101 -193 0 -8 4 -18 10 -24 5 -5
11 -18 13 -29 1 -11 6 -26 10 -32 5 -7 6 -13 2 -13 -3 0 -1 -8 4 -18 33 -62
35 -357 2 -469 -5 -18 -7 -33 -4 -33 3 0 1 -6 -4 -12 -6 -7 -13 -25 -17 -40
-16 -67 -88 -198 -157 -283 -135 -168 -304 -279 -501 -331 -5 -1 -9 -2 -10 -4
-6 -4 -155 -30 -167 -28 -3 0 -18 0 -32 -1 l-26 -1 32 -93 c17 -52 34 -98 37
-103 3 -5 4 -17 3 -26 -2 -10 4 -19 13 -22 15 -4 77 -1 77 4 0 1 11 3 25 4
105 12 338 94 395 138 6 4 46 31 90 60 79 52 246 209 281 264 10 16 31 45 46
65 15 20 25 39 21 43 -3 3 -2 6 4 6 16 0 99 185 127 284 31 106 49 211 41 237
-4 10 -2 19 2 19 5 0 9 36 8 80 0 44 -2 80 -5 80 -3 0 -5 16 -4 36 1 20 -3 57
-8 82 -14 78 -25 127 -28 127 -1 0 -4 11 -6 24 -14 77 -125 302 -180 366 -13
16 -24 32 -24 37 0 20 -204 210 -281 260 -87 57 -146 90 -152 86 -2 -2 -11 3
-19 9 -20 17 -204 83 -212 76 -3 -3 -11 -1 -18 4 -12 10 -65 19 -163 29 -22 2
-55 6 -72 8 -18 2 -34 2 -35 1z"/>
<path d="M3921 11394 c-178 -96 -238 -137 -249 -168 -17 -47 -15 -66 13 -122
18 -37 33 -53 58 -62 56 -20 82 -14 164 38 43 28 86 53 96 56 9 4 17 10 17 15
0 5 9 9 20 9 11 0 20 4 20 9 0 5 9 13 20 16 43 14 67 98 46 165 -19 65 -125
87 -205 44z"/>
<path d="M6340 10500 l-34 -5 27 -12 c21 -10 33 -9 62 3 19 8 35 15 35 17 0 4
-55 3 -90 -3z"/>
<path d="M7128 9985 c-2 -2 -35 -6 -74 -9 -84 -7 -242 -47 -301 -76 -23 -11
-47 -20 -53 -20 -5 0 -10 -3 -10 -8 0 -4 -14 -13 -30 -20 -17 -8 -36 -19 -43
-25 -6 -7 -28 -24 -48 -39 -74 -55 -249 -250 -249 -277 0 -5 -4 -11 -8 -13
-12 -4 -83 -128 -74 -128 4 0 3 -4 -3 -8 -5 -4 -18 -24 -27 -44 -15 -32 -36
-43 -52 -27 -7 7 -25 105 -28 157 -1 6 -4 12 -7 12 -3 0 -7 12 -8 28 -1 15 -7
50 -13 77 -11 53 -20 98 -26 130 -2 11 -10 51 -18 89 -9 38 -13 73 -10 77 3 5
-273 9 -625 9 l-631 0 0 -2434 c0 -1929 3 -2435 13 -2438 10 -4 1538 -3 1560
1 4 0 7 719 7 1596 0 1769 -6 1614 67 1760 64 128 121 185 202 204 48 10 98
-4 142 -40 26 -21 56 -73 48 -82 -2 -2 3 -12 11 -22 13 -16 15 -222 17 -1709
1 -930 2 -1696 2 -1701 1 -7 215 -10 629 -9 345 1 629 2 632 3 3 0 5 724 6
1609 l1 1607 28 60 c16 33 29 62 29 65 1 3 18 33 39 66 57 95 118 141 204 155
42 7 77 -5 113 -37 22 -20 39 -39 38 -42 -1 -4 4 -20 11 -36 6 -16 14 -54 17
-85 3 -31 7 -801 7 -1711 l2 -1655 785 0 785 0 0 1820 c-1 1001 -4 1849 -8
1885 -4 36 -10 85 -13 110 -3 25 -7 55 -7 68 -1 12 -4 22 -7 22 -3 0 -6 8 -6
18 -2 49 -43 213 -77 307 -12 33 -21 63 -19 68 1 4 -2 7 -8 7 -5 0 -10 7 -10
15 0 21 -89 190 -140 265 -56 84 -181 209 -256 257 -63 41 -212 108 -234 106
-3 -1 -12 3 -20 7 -14 8 -50 15 -130 27 -76 11 -370 5 -370 -7 0 -3 -14 -7
-30 -8 -42 -3 -174 -47 -240 -79 -98 -48 -187 -118 -284 -222 -28 -30 -59 -63
-68 -73 -10 -10 -18 -22 -18 -27 0 -5 -4 -11 -8 -13 -22 -9 -142 -219 -172
-302 -11 -31 -17 -31 -23 0 -6 30 -18 78 -24 94 -4 8 -5 20 -4 27 1 6 -3 14
-9 18 -5 3 -10 12 -10 19 0 8 -12 40 -27 72 -15 33 -27 62 -27 66 -1 4 -7 13
-13 20 -7 6 -13 16 -13 21 0 18 -69 110 -131 176 -43 46 -194 153 -203 144 -3
-3 -6 -1 -6 5 0 7 -3 11 -7 10 -5 -1 -24 5 -44 14 -69 30 -175 50 -281 53 -59
1 -108 1 -110 0z"/>
<path d="M3999 9443 c-52 -54 -125 -134 -162 -178 -37 -44 -79 -93 -92 -109
-14 -16 -25 -30 -25 -32 0 -4 -27 -38 -47 -59 -7 -8 -13 -18 -13 -24 0 -6 -4
-11 -10 -11 -5 0 -10 -7 -10 -15 0 -8 -4 -15 -10 -15 -5 0 -10 -6 -10 -14 0
-8 -4 -16 -8 -18 -15 -6 -191 -287 -195 -312 -1 -6 -5 -13 -8 -16 -8 -7 -140
-275 -143 -292 -2 -7 -13 -35 -24 -61 -12 -27 -22 -50 -22 -52 0 -2 -5 -16
-12 -32 -6 -15 -12 -30 -12 -33 -1 -3 -6 -18 -13 -35 -32 -82 -104 -342 -118
-425 -3 -19 -10 -51 -15 -71 -6 -20 -12 -49 -14 -65 -2 -16 -9 -60 -14 -99
-27 -175 -35 -297 -35 -510 0 -182 6 -318 18 -415 7 -55 25 -176 31 -210 3
-14 7 -43 10 -64 3 -22 7 -43 10 -48 5 -8 10 -29 19 -83 3 -16 10 -44 16 -61
5 -17 12 -42 15 -55 10 -44 41 -155 51 -179 3 -8 7 -21 9 -28 1 -7 14 -43 29
-80 15 -37 28 -74 30 -82 2 -8 17 -45 34 -83 17 -37 31 -70 31 -72 0 -18 180
-358 192 -363 4 -2 8 -8 8 -14 0 -9 126 -207 139 -218 4 -3 18 -23 32 -45 31
-47 188 -240 250 -307 120 -128 136 -143 323 -313 10 -9 29 -24 106 -85 101
-80 285 -210 296 -210 1 0 23 -13 47 -30 25 -16 50 -30 56 -30 6 0 11 -4 11
-8 0 -17 489 -251 533 -255 9 -1 17 -5 17 -9 0 -4 6 -8 14 -8 8 0 27 -5 43
-11 15 -6 29 -10 30 -10 2 0 18 -6 38 -15 19 -8 36 -13 37 -12 2 0 26 -6 53
-15 28 -9 59 -18 70 -20 11 -2 27 -7 35 -10 14 -6 83 -23 125 -32 11 -2 31 -6
45 -9 61 -14 251 -47 296 -51 27 -2 65 -7 84 -10 19 -3 69 -7 110 -9 41 -3 75
-5 75 -6 0 -7 312 -4 322 3 6 4 14 3 18 -3 3 -6 11 -8 16 -4 6 3 38 8 72 10
115 6 198 15 317 35 36 6 78 13 95 15 16 2 57 11 91 20 34 8 73 16 86 18 13 1
29 5 34 9 6 3 26 9 44 12 33 6 266 78 305 95 11 4 47 18 80 31 33 12 94 38
135 56 41 19 75 33 75 31 0 -1 16 7 36 20 20 12 39 19 42 15 4 -3 7 -2 7 4 0
6 15 16 33 23 17 8 40 20 50 28 9 8 17 12 17 9 0 -4 24 8 53 26 28 19 59 37
67 41 36 17 157 96 260 170 90 64 91 65 130 97 14 11 40 33 59 47 18 15 53 45
77 67 l44 40 -188 0 -189 -1 -34 -27 c-19 -15 -38 -31 -44 -35 -18 -13 -159
-107 -177 -117 -9 -5 -38 -23 -65 -39 -69 -41 -298 -158 -363 -185 -30 -13
-68 -29 -85 -36 -31 -13 -95 -38 -130 -51 -22 -8 -31 -10 -60 -18 -11 -3 -40
-12 -63 -21 -69 -25 -238 -68 -307 -79 -20 -4 -40 -8 -44 -10 -3 -2 -26 -7
-51 -10 -25 -3 -54 -8 -66 -10 -12 -2 -45 -7 -75 -11 -30 -3 -65 -8 -79 -10
-34 -5 -202 -18 -217 -16 -21 2 -36 1 -68 -2 -16 -1 -36 2 -42 7 -8 5 -13 5
-13 -1 0 -5 -15 -8 -32 -6 -18 1 -80 5 -138 8 -58 2 -114 7 -125 9 -11 2 -54
7 -95 11 -41 4 -84 9 -95 12 -27 5 -96 18 -165 29 -14 2 -36 7 -50 10 -14 3
-38 8 -55 11 -16 3 -32 9 -33 14 -2 5 -7 7 -12 4 -4 -2 -31 2 -61 11 -29 9
-61 17 -71 19 -34 7 -282 93 -312 109 -16 8 -33 13 -38 10 -4 -3 -8 -1 -8 3 0
5 -17 15 -37 22 -117 42 -388 191 -541 297 -35 24 -65 44 -67 44 -5 0 -40 27
-67 52 -10 10 -20 18 -23 18 -6 0 -127 98 -135 110 -3 4 -10 9 -17 11 -11 4
-123 107 -123 113 0 2 -20 34 -45 71 -25 37 -51 87 -57 111 -12 45 -26 54 -81
54 -27 0 -61 27 -107 86 -113 145 -201 272 -282 409 -54 90 -138 256 -138 271
0 8 -4 14 -10 14 -5 0 -10 6 -10 14 0 8 -6 27 -14 43 -24 47 -51 114 -81 198
-15 44 -30 87 -33 95 -3 8 -4 18 -4 23 1 4 -3 7 -9 7 -5 0 -8 4 -5 9 3 5 -3
34 -13 65 -10 31 -15 59 -10 61 7 5 172 -1 244 -9 96 -11 158 -20 218 -32 38
-8 73 -12 78 -8 5 3 9 1 9 -4 0 -5 6 -9 13 -9 21 -1 102 -20 170 -39 16 -5 17
6 17 126 0 126 -1 131 -22 139 -23 8 -212 46 -280 56 -21 3 -53 7 -70 10 -93
13 -295 28 -385 28 l-52 0 -7 41 c-4 23 -9 48 -10 56 -3 15 -8 62 -24 195 -10
91 -5 574 7 642 6 28 9 66 9 82 -1 17 2 31 5 31 4 0 5 10 5 23 -1 12 0 27 3
32 3 6 6 19 7 30 4 39 16 100 24 115 4 8 6 20 4 25 -6 15 303 9 343 -6 13 -5
25 -4 28 2 4 5 11 7 16 3 10 -6 23 -8 99 -19 25 -3 57 -8 72 -10 22 -3 101
-19 206 -42 22 -5 22 -5 22 131 0 144 1 141 -50 150 -14 2 -32 7 -40 10 -8 3
-30 8 -47 11 -41 6 -91 15 -123 20 -14 2 -36 6 -50 9 -53 10 -223 25 -350 30
-61 3 -63 6 -35 79 8 20 15 38 14 40 -4 18 141 349 191 437 5 8 28 49 51 90
91 163 306 469 379 540 3 3 18 20 33 38 l27 34 0 184 c0 101 -4 184 -8 184 -5
0 -51 -44 -103 -97z"/>
<path d="M11551 8912 c-40 -6 -73 -34 -91 -76 -19 -40 -17 -72 4 -131 5 -11
12 -32 18 -47 6 -15 10 -31 11 -35 1 -23 47 -137 60 -152 33 -35 50 -42 102
-46 47 -3 113 39 119 77 1 7 4 18 7 23 14 26 -25 176 -67 257 -8 15 -15 31
-16 35 -8 55 -85 105 -147 95z"/>
<path d="M11771 7889 c-60 -36 -71 -73 -57 -189 4 -36 10 -78 12 -95 8 -67 15
-186 17 -286 2 -95 6 -111 27 -143 27 -39 90 -67 125 -56 11 4 29 10 41 14 12
4 30 24 42 44 18 33 20 50 16 162 -2 69 -6 141 -9 160 -2 19 -7 62 -11 95 -3
33 -8 71 -10 85 -3 14 -7 41 -10 60 -2 19 -6 49 -9 66 -12 70 -115 119 -174
83z"/>
<path d="M11812 6569 c-12 -5 -22 -6 -22 -3 0 10 -60 -37 -69 -55 -6 -10 -12
-35 -15 -57 -6 -50 -16 -112 -22 -144 -3 -14 -8 -43 -10 -65 -3 -22 -19 -96
-36 -165 -37 -150 -39 -176 -20 -216 14 -29 74 -72 97 -69 120 14 138 43 185
305 6 36 14 72 17 80 3 8 7 24 8 35 2 22 12 75 20 115 16 81 17 147 1 178 -24
46 -91 77 -134 61z"/>
<path d="M11448 5279 c-7 -4 -15 -6 -19 -4 -16 11 -56 -48 -110 -162 -32 -69
-59 -128 -59 -133 0 -5 -5 -10 -11 -12 -5 -2 -11 -10 -13 -18 -1 -8 -14 -39
-29 -67 -15 -29 -27 -56 -26 -59 0 -4 -3 -10 -8 -13 -16 -12 -54 -101 -55
-129 -2 -66 66 -134 126 -127 77 9 107 31 147 108 17 34 34 64 38 67 14 11
160 321 164 349 1 9 6 22 11 30 29 46 -11 153 -64 167 -37 10 -78 11 -92 3z"/>
<path d="M4950 4309 c0 -3 6 -6 13 -7 6 0 32 -6 57 -12 65 -17 82 -20 115 -24
17 -2 38 -7 48 -11 9 -4 26 -5 37 -2 11 3 20 2 20 -2 0 -3 15 -7 33 -8 17 -1
66 -5 107 -9 99 -10 484 -10 585 -1 112 11 220 24 220 27 0 2 27 7 72 13 21 3
50 10 63 15 28 11 34 12 57 12 9 0 13 3 9 7 -8 8 -1436 11 -1436 2z"/>
<path d="M10748 4142 c-27 -3 -51 -27 -153 -148 -27 -32 -101 -110 -163 -173
-62 -62 -118 -124 -123 -138 -33 -88 29 -171 132 -175 42 -1 44 1 163 124 67
68 136 143 154 166 19 22 44 52 55 65 47 52 67 78 67 86 0 5 5 11 12 13 21 7
16 113 -7 138 -36 39 -71 50 -137 42z"/>
<path d="M9770 3243 c-8 -4 -74 -46 -147 -95 -135 -92 -162 -122 -157 -176 1
-15 2 -32 3 -39 1 -15 39 -54 66 -69 36 -19 101 -17 121 3 11 10 48 36 84 58
36 21 68 43 71 48 3 5 8 8 10 6 11 -7 89 59 100 84 42 98 -57 216 -151 180z"/>
</g>
</svg>
