<svg xmlns="http://www.w3.org/2000/svg" version="1.1" xmlns:xlink="http://www.w3.org/1999/xlink" xmlns:svgjs="http://svgjs.dev/svgjs" width="1500" height="935" viewBox="0 0 1500 935"><g transform="matrix(1,0,0,1,-0.9090909090909918,0.3785425101214628)"><svg viewBox="0 0 396 247" data-background-color="#046380" preserveAspectRatio="xMidYMid meet" height="935" width="1500" xmlns="http://www.w3.org/2000/svg" xmlns:xlink="http://www.w3.org/1999/xlink"><g id="tight-bounds" transform="matrix(1,0,0,1,0.2400000000000091,-0.09999999999999432)"><svg viewBox="0 0 395.52 247.2" height="247.2" width="395.52"><g><svg></svg></g><g><svg viewBox="0 0 395.52 247.2" height="247.2" width="395.52"><mask id="8b26c794-54c5-455f-a945-91109ac9f121"><rect width="640" height="400" fill="white"></rect><g transform="matrix(1,0,0,1,105.66662576687116,37.08)"><svg viewBox="0 0 184.18674846625765 173.04" height="173.04" width="184.18674846625765"><g><svg viewBox="0 0 184.18674846625765 173.04" height="173.04" width="184.18674846625765"><g><svg viewBox="0 0 184.18674846625765 173.04" height="173.04" width="184.18674846625765"><g><svg viewBox="0 0 184.18674846625765 173.04" height="173.04" width="184.18674846625765"><g id="SvgjsG1010"><svg viewBox="0 0 184.18674846625765 173.04" height="173.04" width="184.18674846625765" id="SvgjsSvg1009"><g><svg viewBox="0 0 184.18674846625765 173.04" height="173.04" width="184.18674846625765"><g transform="matrix(1,0,0,1,0,0)"><svg width="184.18674846625765" viewBox="-2.7 -29.6 35.7 33.6" height="173.04" data-palette-color="#ffffff"><path d="M9.4 0L1.3 0 1.3-25 7.7-25 8.3-22 8.5-22Q9.1-23.45 10.35-24.53 11.6-25.6 13.8-25.6L13.8-25.6Q15.35-25.6 16.48-24.58 17.6-23.55 18-21.6L18-21.6Q18.55-23.2 19.9-24.4 21.25-25.6 23.4-25.6L23.4-25.6Q26.1-25.6 27.55-23.38 29-21.15 29-17.4L29-17.4 29 0 20.9 0 20.9-16.8Q20.9-18.3 20.05-18.3L20.05-18.3Q19.05-18.3 18.4-16.4L18.4-16.4 18.4 0 11.9 0 11.9-16.8Q11.9-18.3 10.9-18.3L10.9-18.3Q10.05-18.3 9.4-16.4L9.4-16.4 9.4 0Z" opacity="1" transform="matrix(1,0,0,1,0,0)" fill="black" class="wordmark-text-0" id="SvgjsPath1008" stroke-width="7" stroke="black" stroke-linejoin="round"></path></svg></g></svg></g></svg></g></svg></g><g></g></svg></g></svg></g></svg></g></mask><g transform="matrix(1,0,0,1,105.66662576687116,37.08)"><svg viewBox="0 0 184.18674846625765 173.04" height="173.04" width="184.18674846625765"><g><svg viewBox="0 0 184.18674846625765 173.04" height="173.04" width="184.18674846625765"><g><svg viewBox="0 0 184.18674846625765 173.04" height="173.04" width="184.18674846625765"><g><svg viewBox="0 0 184.18674846625765 173.04" height="173.04" width="184.18674846625765"><g id="textblocktransform"><svg viewBox="0 0 184.18674846625765 173.04" height="173.04" width="184.18674846625765" id="textblock"><g><svg viewBox="0 0 184.18674846625765 173.04" height="173.04" width="184.18674846625765"><g transform="matrix(1,0,0,1,0,0)"><svg width="184.18674846625765" viewBox="-2.7 -29.6 35.7 33.6" height="173.04" data-palette-color="#ffffff"><path d="M9.4 0L1.3 0 1.3-25 7.7-25 8.3-22 8.5-22Q9.1-23.45 10.35-24.53 11.6-25.6 13.8-25.6L13.8-25.6Q15.35-25.6 16.48-24.58 17.6-23.55 18-21.6L18-21.6Q18.55-23.2 19.9-24.4 21.25-25.6 23.4-25.6L23.4-25.6Q26.1-25.6 27.55-23.38 29-21.15 29-17.4L29-17.4 29 0 20.9 0 20.9-16.8Q20.9-18.3 20.05-18.3L20.05-18.3Q19.05-18.3 18.4-16.4L18.4-16.4 18.4 0 11.9 0 11.9-16.8Q11.9-18.3 10.9-18.3L10.9-18.3Q10.05-18.3 9.4-16.4L9.4-16.4 9.4 0Z" opacity="1" transform="matrix(1,0,0,1,0,0)" fill="#ffffff" class="wordmark-text-0" data-fill-palette-color="primary" id="text-0"></path></svg></g></svg></g></svg></g></svg></g><g></g></svg></g></svg></g></svg></g><g mask="url(#8b26c794-54c5-455f-a945-91109ac9f121)"><g transform="matrix(3.3543091655266752, 0, 0, 3.3543091655266752, 78.68202462380302, 1)"><svg xmlns="http://www.w3.org/2000/svg" xmlns:xlink="http://www.w3.org/1999/xlink" version="1.1" x="0" y="0" viewBox="15.700000000000003 13.8 71 73.10000000000001" style="enable-background:new 0 0 100 100;" xml:space="preserve" height="73.10000000000001" width="71" class="icon-none" data-fill-palette-color="accent" id="none"><path d="M84 43c0.1 0 0.2 0 0.3 0 0.5-0.2 0.8-0.7 0.7-1.3-0.2-0.6-0.4-1.3-0.7-1.9-0.2-0.5-0.8-0.8-1.3-0.6-0.5 0.2-0.8 0.8-0.6 1.3 0.2 0.6 0.4 1.2 0.6 1.8C83.1 42.7 83.5 43 84 43z" fill="#ffffff" data-fill-palette-color="accent"></path><path d="M81.7 68.3c-0.5 1.2-1.2 2.5-1.8 3.7-0.3 0.5-0.1 1.1 0.4 1.4 0.2 0.1 0.3 0.1 0.5 0.1 0.3 0 0.7-0.2 0.9-0.5 0.7-1.2 1.4-2.5 1.9-3.9 0.2-0.5 0-1.1-0.5-1.3C82.5 67.6 81.9 67.8 81.7 68.3z" fill="#ffffff" data-fill-palette-color="accent"></path><path d="M75 81.5c1-1 2-2.1 2.9-3.2 0.3-0.4 0.3-1.1-0.1-1.4-0.4-0.3-1.1-0.3-1.4 0.1-0.9 1.1-1.8 2.1-2.8 3-0.4 0.4-0.4 1 0 1.4 0.2 0.2 0.5 0.3 0.7 0.3C74.6 81.8 74.8 81.7 75 81.5z" fill="#ffffff" data-fill-palette-color="accent"></path><path d="M84.4 63.7c0.1 0 0.2 0 0.2 0 0.4 0 0.9-0.3 1-0.8 0.3-1.4 0.6-2.8 0.8-4.2 0.1-0.5-0.3-1.1-0.9-1.1-0.5-0.1-1.1 0.3-1.1 0.9-0.2 1.3-0.4 2.7-0.8 4C83.5 63 83.8 63.6 84.4 63.7z" fill="#ffffff" data-fill-palette-color="accent"></path><path d="M85.2 47.1c-0.5 0.1-0.9 0.6-0.8 1.1 0.2 1.3 0.3 2.7 0.3 4.1 0 0.5 0.5 1 1 1 0 0 0 0 0 0 0.6 0 1-0.5 1-1 0-1.4-0.2-2.9-0.4-4.3C86.3 47.5 85.8 47.1 85.2 47.1z" fill="#ffffff" data-fill-palette-color="accent"></path><path d="M67.8 86.9c0.2 0 0.4 0 0.5-0.2 0.6-0.4 1.2-0.7 1.7-1.1 0.5-0.3 0.6-0.9 0.2-1.4-0.3-0.5-0.9-0.6-1.4-0.2-0.5 0.4-1.1 0.7-1.6 1.1-0.5 0.3-0.6 0.9-0.3 1.4C67.2 86.8 67.5 86.9 67.8 86.9z" fill="#ffffff" data-fill-palette-color="accent"></path><path d="M22.1 22.5c0.2 0 0.4 0 0.5-0.2 0.6-0.3 1.1-0.7 1.7-1 0.5-0.3 0.6-0.9 0.4-1.4-0.3-0.5-0.9-0.6-1.4-0.4-0.6 0.3-1.2 0.7-1.8 1-0.5 0.3-0.6 0.9-0.3 1.4C21.4 22.3 21.8 22.5 22.1 22.5z" fill="#ffffff" data-fill-palette-color="accent"></path><path d="M29.6 18.7c0.1 0 0.2 0 0.4-0.1 1.3-0.5 2.6-0.9 4-1.3 0.5-0.1 0.8-0.7 0.7-1.2s-0.7-0.8-1.2-0.7c-1.4 0.4-2.8 0.9-4.1 1.4-0.5 0.2-0.8 0.8-0.6 1.3C28.8 18.5 29.2 18.7 29.6 18.7z" fill="#ffffff" data-fill-palette-color="accent"></path><path d="M54.5 16.8c0.1 0 0.1 0 0.2 0 0.5 0 0.9-0.3 1-0.8 0.1-0.5-0.2-1.1-0.8-1.2-1.4-0.3-2.9-0.6-4.3-0.7-0.6-0.1-1 0.3-1.1 0.9-0.1 0.5 0.3 1 0.9 1.1C51.8 16.3 53.2 16.5 54.5 16.8z" fill="#ffffff" data-fill-palette-color="accent"></path><path d="M40 16.1c1.4-0.2 2.8-0.3 4.2-0.3 0.6 0 1-0.5 1-1 0-0.6-0.5-1-1-1-1.4 0-2.9 0.1-4.3 0.3-0.5 0.1-0.9 0.6-0.9 1.1 0.1 0.5 0.5 0.9 1 0.9C39.9 16.1 40 16.1 40 16.1z" fill="#ffffff" data-fill-palette-color="accent"></path><path d="M62.3 19.3c0.1 0.1 0.3 0.1 0.4 0.1 0.4 0 0.8-0.2 0.9-0.6 0.2-0.5 0-1.1-0.5-1.3-0.6-0.3-1.3-0.5-1.9-0.8-0.5-0.2-1.1 0.1-1.3 0.6-0.2 0.5 0.1 1.1 0.6 1.3C61.1 18.8 61.7 19.1 62.3 19.3z" fill="#ffffff" data-fill-palette-color="accent"></path><path d="M76.2 17.1c-5.3 0-9.6 4.3-9.6 9.6 0 5.3 4.3 9.6 9.6 9.6s9.6-4.3 9.6-9.6C85.8 21.4 81.5 17.1 76.2 17.1zM76.2 34.3c-4.2 0-7.6-3.4-7.6-7.6s3.4-7.6 7.6-7.6 7.6 3.4 7.6 7.6S80.4 34.3 76.2 34.3z" fill="#ffffff" data-fill-palette-color="accent"></path><path d="M43.7 82.6c15.4 0 28-12.5 28-28s-12.5-28-28-28-28 12.5-28 28S28.3 82.6 43.7 82.6zM24.6 37.1c1.8 0.2 3 0.7 4.3 1.1 1.9 0.7 3.9 1.4 7.8 1.4s5.9-0.7 7.8-1.4c1.8-0.7 3.6-1.3 7.1-1.3 3.6 0 5.2 0.6 7 1.3 1.6 0.6 3.3 1.2 6.3 1.4 2.1 3 3.6 6.4 4.3 10.1-3.6-0.1-5.5-0.7-7.5-1.3-2.2-0.7-4.5-1.4-9-1.4s-6.8 0.7-9 1.4c-2.2 0.7-4.2 1.3-8.4 1.3s-6.3-0.6-8.4-1.3c-2-0.6-4.2-1.3-8-1.4C20 43.4 22 40 24.6 37.1zM26.3 50.4c2.2 0.7 4.5 1.4 9 1.4 4.5 0 6.8-0.7 9-1.4 2.2-0.7 4.2-1.3 8.4-1.3s6.3 0.6 8.4 1.3c2.1 0.7 4.3 1.3 8.4 1.4 0.1 0.9 0.2 1.9 0.2 2.8 0 2.5-0.4 5-1.1 7.3C65 61.9 63 61.3 61 60.7c-2.2-0.7-4.5-1.4-8.9-1.4s-6.7 0.7-8.9 1.4C41.1 61.3 39 62 34.9 62s-6.2-0.6-8.3-1.3c-2.1-0.7-4.3-1.3-8.4-1.4-0.3-1.5-0.4-3-0.4-4.6 0-1.9 0.2-3.8 0.6-5.5C22.3 49.2 24.2 49.8 26.3 50.4zM26.3 73.9c1 0.2 1.8 0.5 2.7 0.8 1.9 0.7 3.9 1.4 7.9 1.4s5.9-0.7 7.9-1.4c1.9-0.7 3.6-1.3 7.2-1.3s5.3 0.6 7.2 1.3c0.3 0.1 0.5 0.2 0.8 0.3-4.4 3.5-10 5.7-16.1 5.7C37 80.6 30.9 78.1 26.3 73.9zM61.7 73.4c-0.7-0.2-1.3-0.4-1.9-0.6-1.9-0.7-3.9-1.4-7.9-1.4-3.9 0-5.9 0.7-7.9 1.4-1.9 0.7-3.6 1.3-7.2 1.3s-5.3-0.6-7.2-1.3c-1.5-0.5-3.1-1.1-5.6-1.3 0 0 0 0 0 0-2.5-2.9-4.4-6.4-5.4-10.2 3.5 0.1 5.4 0.7 7.4 1.3 2.2 0.7 4.5 1.4 8.9 1.4s6.7-0.7 8.9-1.4c2.1-0.7 4.2-1.3 8.3-1.3s6.2 0.6 8.3 1.3c2 0.6 4 1.2 7.6 1.4C66.6 67.6 64.4 70.8 61.7 73.4zM63.2 37.5c-1.6-0.2-2.7-0.7-3.8-1.1-1.9-0.7-3.8-1.4-7.7-1.4-3.9 0-5.9 0.7-7.8 1.4-1.8 0.7-3.6 1.3-7.1 1.3s-5.3-0.6-7.1-1.3c-1-0.4-2-0.7-3.3-1 4.6-4.2 10.7-6.7 17.4-6.7C51.5 28.7 58.4 32.1 63.2 37.5z" fill="#ffffff" data-fill-palette-color="accent"></path></svg></g></g></svg></g><defs></defs></svg><rect width="395.52" height="247.2" fill="none" stroke="none" visibility="hidden"></rect></g></svg></g></svg>